<svg width="50" height="50" viewBox="0 0 50 50" fill="none" xmlns="http://www.w3.org/2000/svg">
<rect width="50" height="50" rx="25" fill="#594433"/>
<path d="M36.1316 23.9231H39.0002C39.0002 16.5561 33.4452 11 26.0772 11V13.8721C31.9033 13.8721 36.1316 18.0984 36.1316 23.9231Z" fill="#D9D9D9"/>
<path d="M25.5098 20.1392C28.5611 20.1392 29.8626 21.4406 29.8626 24.4917H32.7645C32.7645 19.8127 30.1891 17.2375 25.5098 17.2375V20.1392ZM30.4749 28.0361C30.1961 27.7827 29.8297 27.6475 29.4532 27.6592C29.0766 27.6708 28.7193 27.8283 28.4566 28.0984L24.9845 31.6689C24.1488 31.5094 22.4686 30.9856 20.7391 29.2606C19.0096 27.5297 18.4858 25.8453 18.3305 25.0154L21.8984 21.5421C22.1689 21.2797 22.3266 20.9224 22.3383 20.5457C22.3499 20.1691 22.2145 19.8026 21.9608 19.524L16.5996 13.6293C16.3457 13.3498 15.9929 13.1803 15.6161 13.1567C15.2392 13.1331 14.868 13.2574 14.5813 13.5031L11.4328 16.2031C11.1819 16.4548 11.0322 16.7899 11.012 17.1447C10.9903 17.5074 10.5753 26.0992 17.238 32.7643C23.0504 38.5749 30.3313 39 32.3364 39C32.6295 39 32.8095 38.9913 32.8573 38.9884C33.2121 38.9685 33.547 38.8182 33.7975 38.5662L36.4963 35.4164C36.7422 35.1299 36.8667 34.7589 36.8434 34.3821C36.8201 34.0053 36.6508 33.6524 36.3715 33.3983L30.4749 28.0361Z" fill="#D9D9D9"/>
</svg>
