<svg width="31" height="26" viewBox="0 0 31 26" fill="none" xmlns="http://www.w3.org/2000/svg">
<path d="M29.0179 0H1.93452C1.41059 0 0.957186 0.190586 0.574312 0.571759C0.191437 0.952932 0 1.40432 0 1.92593V24.0741C0 24.5957 0.191437 25.0471 0.574312 25.4282C0.957186 25.8094 1.41059 26 1.93452 26H29.0179C29.5418 26 29.9952 25.8094 30.3781 25.4282C30.7609 25.0471 30.9524 24.5957 30.9524 24.0741V1.92593C30.9524 1.58488 30.8667 1.26389 30.6955 0.962963C30.5242 0.662037 30.2874 0.426312 29.9851 0.255787C29.6828 0.0852624 29.3604 0 29.0179 0ZM29.0179 24.0741H1.93452V18.4167L9.70285 10.9236L17.713 18.8681C17.8742 19.0687 18.0807 19.164 18.3326 19.1539C18.5845 19.1439 18.8213 19.0586 19.043 18.8981L22.5795 15.7083L28.9272 22.2384C28.9473 22.2384 28.9776 22.2585 29.0179 22.2986V24.0741ZM29.0179 19.5602L23.3352 13.7523C23.1538 13.5918 22.9473 13.5015 22.7155 13.4815C22.4838 13.4614 22.2672 13.5316 22.0657 13.6921L18.4082 16.8519L10.4283 8.96759C10.2469 8.74691 10.0152 8.62654 9.73307 8.60648C9.45095 8.58642 9.20914 8.6767 9.00763 8.87732L1.93452 15.7083V1.92593H29.0179V19.5602ZM22.247 9.62963C22.5896 9.62963 22.912 9.54437 23.2143 9.37384C23.5166 9.20332 23.7533 8.97261 23.9246 8.68171C24.0959 8.39082 24.1815 8.06481 24.1815 7.7037C24.1815 7.1821 23.9901 6.73071 23.6072 6.34954C23.2244 5.96836 22.771 5.77778 22.247 5.77778C21.7231 5.77778 21.2697 5.96836 20.8868 6.34954C20.5039 6.73071 20.3125 7.18711 20.3125 7.71875C20.3125 8.25039 20.5039 8.70177 20.8868 9.07292C21.2697 9.44406 21.7231 9.62963 22.247 9.62963Z" fill="#F5EEDE"/>
</svg>
