<svg width="26" height="26" viewBox="0 0 26 26" fill="none" xmlns="http://www.w3.org/2000/svg">
<path fill-rule="evenodd" clip-rule="evenodd" d="M13 24.375C16.0168 24.375 18.9101 23.1766 21.0433 21.0433C23.1766 18.9101 24.375 16.0168 24.375 13C24.375 9.98316 23.1766 7.08989 21.0433 4.95666C18.9101 2.82343 16.0168 1.625 13 1.625C9.98316 1.625 7.08989 2.82343 4.95666 4.95666C2.82343 7.08989 1.625 9.98316 1.625 13C1.625 16.0168 2.82343 18.9101 4.95666 21.0433C7.08989 23.1766 9.98316 24.375 13 24.375ZM13 26C16.4478 26 19.7544 24.6304 22.1924 22.1924C24.6304 19.7544 26 16.4478 26 13C26 9.55219 24.6304 6.24559 22.1924 3.80761C19.7544 1.36964 16.4478 0 13 0C9.55219 0 6.24559 1.36964 3.80761 3.80761C1.36964 6.24559 0 9.55219 0 13C0 16.4478 1.36964 19.7544 3.80761 22.1924C6.24559 24.6304 9.55219 26 13 26Z" fill="#F5EEDE"/>
<path d="M12.9999 11C13.2651 11 13.5194 11.1053 13.707 11.2929C13.8945 11.4804 13.9999 11.7348 13.9999 12V17C13.9999 17.2652 13.8945 17.5195 13.707 17.7071C13.5194 17.8946 13.2651 18 12.9999 18C12.7346 18 12.4803 17.8946 12.2927 17.7071C12.1052 17.5195 11.9999 17.2652 11.9999 17V12C11.9999 11.7348 12.1052 11.4804 12.2927 11.2929C12.4803 11.1053 12.7346 11 12.9999 11ZM12.9999 9.99998C12.7346 9.99998 12.4803 9.89462 12.2927 9.70708C12.1052 9.51955 11.9999 9.26519 11.9999 8.99998C11.9999 8.73476 12.1052 8.48041 12.2927 8.29287C12.4803 8.10534 12.7346 7.99998 12.9999 7.99998C13.2651 7.99998 13.5194 8.10534 13.707 8.29287C13.8945 8.48041 13.9999 8.73476 13.9999 8.99998C13.9999 9.26519 13.8945 9.51955 13.707 9.70708C13.5194 9.89462 13.2651 9.99998 12.9999 9.99998Z" fill="#F5EEDE"/>
</svg>
