<svg width="50" height="50" viewBox="0 0 50 50" fill="none" xmlns="http://www.w3.org/2000/svg">
<rect width="50" height="50" rx="25" fill="#594433"/>
<path d="M19.12 11H30.88C35.36 11 39 14.64 39 19.12V30.88C39 33.0336 38.1445 35.0989 36.6217 36.6217C35.0989 38.1445 33.0336 39 30.88 39H19.12C14.64 39 11 35.36 11 30.88V19.12C11 16.9664 11.8555 14.9011 13.3783 13.3783C14.9011 11.8555 16.9664 11 19.12 11V11ZM18.84 13.8C17.5033 13.8 16.2214 14.331 15.2762 15.2762C14.331 16.2214 13.8 17.5033 13.8 18.84V31.16C13.8 33.946 16.054 36.2 18.84 36.2H31.16C32.4967 36.2 33.7786 35.669 34.7238 34.7238C35.669 33.7786 36.2 32.4967 36.2 31.16V18.84C36.2 16.054 33.946 13.8 31.16 13.8H18.84ZM32.35 15.9C32.8141 15.9 33.2592 16.0844 33.5874 16.4126C33.9156 16.7408 34.1 17.1859 34.1 17.65C34.1 18.1141 33.9156 18.5592 33.5874 18.8874C33.2592 19.2156 32.8141 19.4 32.35 19.4C31.8859 19.4 31.4408 19.2156 31.1126 18.8874C30.7844 18.5592 30.6 18.1141 30.6 17.65C30.6 17.1859 30.7844 16.7408 31.1126 16.4126C31.4408 16.0844 31.8859 15.9 32.35 15.9ZM25 18C26.8565 18 28.637 18.7375 29.9497 20.0503C31.2625 21.363 32 23.1435 32 25C32 26.8565 31.2625 28.637 29.9497 29.9497C28.637 31.2625 26.8565 32 25 32C23.1435 32 21.363 31.2625 20.0503 29.9497C18.7375 28.637 18 26.8565 18 25C18 23.1435 18.7375 21.363 20.0503 20.0503C21.363 18.7375 23.1435 18 25 18V18ZM25 20.8C23.8861 20.8 22.8178 21.2425 22.0302 22.0302C21.2425 22.8178 20.8 23.8861 20.8 25C20.8 26.1139 21.2425 27.1822 22.0302 27.9698C22.8178 28.7575 23.8861 29.2 25 29.2C26.1139 29.2 27.1822 28.7575 27.9698 27.9698C28.7575 27.1822 29.2 26.1139 29.2 25C29.2 23.8861 28.7575 22.8178 27.9698 22.0302C27.1822 21.2425 26.1139 20.8 25 20.8Z" fill="#F5EEDE"/>
</svg>
