<svg width="50" height="50" viewBox="0 0 50 50" fill="none" xmlns="http://www.w3.org/2000/svg">
<rect width="50" height="50" rx="25" fill="#594433"/>
<path d="M25.4828 11C28.1013 11 30.5232 11.5333 32.7484 12.6C34.9736 13.6666 36.7328 15.117 38.0259 16.9512C39.319 18.7854 39.9655 20.7861 39.9655 22.9532C39.9655 25.1204 39.319 27.1239 38.0259 28.9637C36.7328 30.8035 34.9763 32.2568 32.7565 33.3234C30.5366 34.3901 28.1121 34.9234 25.4828 34.9234C24.653 34.9234 23.7963 34.8613 22.9127 34.7372C19.0765 37.5251 17.0345 38.936 16.7866 38.9699C16.6681 39.015 16.555 39.0094 16.4472 38.953C16.4041 38.9191 16.3718 38.874 16.3502 38.8175C16.3287 38.7611 16.3179 38.7103 16.3179 38.6651V38.5974C16.3825 38.1572 16.8728 36.323 17.7888 33.0949C15.7091 32.0113 14.0577 30.575 12.8346 28.7859C11.6115 26.9969 11 25.0527 11 22.9532C11 20.7861 11.6466 18.7854 12.9397 16.9512C14.2328 15.117 15.9919 13.6666 18.2171 12.6C20.4423 11.5333 22.8642 11 25.4828 11ZM18.1444 26.1193V20.9215H19.4213C19.5938 20.9215 19.7742 20.8566 19.9628 20.7268C20.1514 20.597 20.2457 20.4192 20.2457 20.1935C20.2457 19.9678 20.1595 19.7787 19.9871 19.6263C19.8147 19.4739 19.6476 19.3977 19.486 19.3977H15.2834C15.1002 19.3977 14.9278 19.4542 14.7662 19.5671C14.6045 19.6799 14.5237 19.8662 14.5237 20.1258C14.5237 20.3854 14.6099 20.5829 14.7823 20.7184C14.9547 20.8538 15.1487 20.9215 15.3642 20.9215H16.6412V26.1193C16.6412 26.4015 16.7058 26.6329 16.8351 26.8135C16.9644 26.9941 17.1476 27.0844 17.3847 27.0844C17.6218 27.0844 17.8077 26.9828 17.9423 26.7796C18.077 26.5765 18.1444 26.3564 18.1444 26.1193ZM25.1433 27.0844C25.542 26.9264 25.6659 26.5257 25.5151 25.8823C25.472 25.7356 25.1676 24.858 24.6018 23.2495C24.0361 21.6411 23.7101 20.724 23.6239 20.4983C23.333 19.7646 22.9343 19.3977 22.4278 19.3977C21.8782 19.3977 21.4526 19.7646 21.1509 20.4983C21.0647 20.6901 20.736 21.6242 20.1649 23.3003C19.5938 24.9765 19.2974 25.8371 19.2759 25.8823C19.2004 25.9839 19.1816 26.1701 19.2193 26.441C19.257 26.7119 19.3728 26.8981 19.5668 26.9997C19.7823 27.1013 19.9925 27.1126 20.1972 27.0336C20.4019 26.9546 20.542 26.8361 20.6175 26.678L21.0054 25.5606H23.8179C23.9364 25.9669 24.0226 26.2322 24.0765 26.3564C24.1304 26.4692 24.1897 26.5821 24.2543 26.695C24.319 26.8078 24.4375 26.9179 24.6099 27.0251C24.7823 27.1324 24.9601 27.1521 25.1433 27.0844ZM29.4914 27.0844C29.7177 27.0844 29.9251 27.011 30.1137 26.8643C30.3023 26.7175 30.3966 26.52 30.3966 26.2717C30.3966 26.0234 30.3103 25.8287 30.1379 25.6876C29.9655 25.5465 29.75 25.4759 29.4914 25.4759H27.6972V20.3628C27.6972 20.1258 27.6299 19.9057 27.4952 19.7025C27.3605 19.4993 27.1746 19.3977 26.9375 19.3977C26.7004 19.3977 26.5172 19.488 26.3879 19.6686C26.2586 19.8492 26.194 20.0806 26.194 20.3628V26.1193C26.194 26.4015 26.2586 26.6329 26.3879 26.8135C26.5172 26.9941 26.7004 27.0844 26.9375 27.0844C26.9483 27.0844 26.9671 27.0816 26.9941 27.0759C27.021 27.0703 27.0399 27.0675 27.0506 27.0675C27.0614 27.0675 27.0803 27.0703 27.1072 27.0759C27.1342 27.0816 27.153 27.0844 27.1638 27.0844H29.4914ZM35.8599 26.9659C36.0431 26.7853 36.1347 26.5793 36.1347 26.3479C36.1347 26.1165 36.0647 25.9105 35.9246 25.7299C35.8599 25.6283 35.181 24.6745 33.8879 22.8686C34.5129 22.2026 35.1433 21.5367 35.7791 20.8707C35.9407 20.7014 36.0404 20.5011 36.0781 20.2697C36.1158 20.0383 36.0539 19.821 35.8922 19.6178C35.7091 19.4372 35.5124 19.3639 35.3023 19.3977C35.0921 19.4316 34.8955 19.5445 34.7123 19.7364C34.68 19.7702 34.5399 19.9198 34.292 20.185C34.0442 20.4503 33.7236 20.7917 33.3303 21.2094C32.937 21.627 32.5894 21.9995 32.2877 22.3268V20.3628C32.2877 20.1258 32.2204 19.9057 32.0857 19.7025C31.951 19.4993 31.7651 19.3977 31.528 19.3977C31.2909 19.3977 31.1078 19.488 30.9784 19.6686C30.8491 19.8492 30.7845 20.0806 30.7845 20.3628V26.1193C30.7845 26.4015 30.8491 26.6329 30.9784 26.8135C31.1078 26.9941 31.2909 27.0844 31.528 27.0844C31.7651 27.0844 31.951 26.9828 32.0857 26.7796C32.2204 26.5765 32.2877 26.3564 32.2877 26.1193V24.5786C32.3308 24.5335 32.4116 24.446 32.5302 24.3162C32.6487 24.1864 32.7457 24.082 32.8211 24.003C33.5323 25.0188 34.1681 25.9162 34.7285 26.695C34.8793 26.9094 35.0544 27.0477 35.2538 27.1098C35.4531 27.1719 35.6552 27.1239 35.8599 26.9659ZM21.4418 24.0368L22.4278 21.0062L23.3976 24.0368H21.4418Z" fill="#F5EEDE"/>
</svg>
