<svg width="18" height="26" viewBox="0 0 18 26" fill="none" xmlns="http://www.w3.org/2000/svg">
<path d="M15.3639 2.82977C13.7903 1.14055 11.6898 0.137083 9.4677 0.0130425C7.24562 -0.110998 5.05952 0.65318 3.33131 2.15809C1.6031 3.663 0.455294 5.80196 0.109424 8.16214C-0.236445 10.5223 0.244139 12.9364 1.45842 14.9385L7.71532 25.2525C7.85456 25.482 8.04494 25.6706 8.2692 25.8011C8.49347 25.9316 8.74453 26 8.99962 26C9.25471 26 9.50576 25.9316 9.73003 25.8011C9.95429 25.6706 10.1447 25.482 10.2839 25.2525L16.541 14.9385C17.6677 13.0813 18.1657 10.8646 17.9513 8.66009C17.737 6.45554 16.8235 4.3971 15.3639 2.82977ZM15.1535 13.9679L8.99964 24.1117L2.84573 13.9679C0.962041 10.8629 1.36605 6.70754 3.80636 4.08709C4.48834 3.35478 5.29798 2.77387 6.18905 2.37754C7.08011 1.98122 8.03516 1.77723 8.99964 1.77723C9.96413 1.77723 10.9192 1.98122 11.8102 2.37754C12.7013 2.77387 13.5109 3.35478 14.1929 4.08709C16.6332 6.70754 17.0372 10.8629 15.1535 13.9679Z" fill="#F5EEDE"/>
<path d="M9 14.625C8.10999 14.625 7.23996 14.3391 6.49994 13.8034C5.75991 13.2677 5.18314 12.5063 4.84254 11.6156C4.50195 10.7248 4.41283 9.74456 4.58647 8.79891C4.7601 7.85325 5.18869 6.98461 5.81802 6.30283C6.44736 5.62105 7.24918 5.15675 8.1221 4.96864C8.99501 4.78054 9.89981 4.87708 10.7221 5.24606C11.5443 5.61504 12.2471 6.23988 12.7416 7.04157C13.2361 7.84326 13.5 8.78579 13.5 9.74997C13.4986 11.0424 13.024 12.2815 12.1804 13.1954C11.3368 14.1093 10.193 14.6234 9 14.625ZM9 6.82497C8.46599 6.82497 7.94397 6.99652 7.49996 7.31792C7.05595 7.63933 6.70988 8.09615 6.50553 8.63062C6.30117 9.1651 6.2477 9.75322 6.35188 10.3206C6.45606 10.888 6.71321 11.4092 7.09081 11.8183C7.46841 12.2273 7.94951 12.5059 8.47326 12.6188C8.99701 12.7316 9.53989 12.6737 10.0332 12.4523C10.5266 12.2309 10.9483 11.856 11.245 11.375C11.5416 10.894 11.7 10.3285 11.7 9.74997C11.6993 8.97445 11.4146 8.23092 10.9084 7.68254C10.4022 7.13416 9.71587 6.82575 9 6.82497Z" fill="#F5EEDE"/>
</svg>
