<svg width="23" height="26" viewBox="0 0 23 26" fill="none" xmlns="http://www.w3.org/2000/svg">
<path fill-rule="evenodd" clip-rule="evenodd" d="M4.875 2.4375H3.25C2.38805 2.4375 1.5614 2.77991 0.951903 3.3894C0.34241 3.9989 0 4.82555 0 5.6875V22.75C0 23.612 0.34241 24.4386 0.951903 25.0481C1.5614 25.6576 2.38805 26 3.25 26H19.5C20.362 26 21.1886 25.6576 21.7981 25.0481C22.4076 24.4386 22.75 23.612 22.75 22.75V5.6875C22.75 4.82555 22.4076 3.9989 21.7981 3.3894C21.1886 2.77991 20.362 2.4375 19.5 2.4375H17.875V4.0625H19.5C19.931 4.0625 20.3443 4.2337 20.649 4.53845C20.9538 4.8432 21.125 5.25652 21.125 5.6875V22.75C21.125 23.181 20.9538 23.5943 20.649 23.899C20.3443 24.2038 19.931 24.375 19.5 24.375H3.25C2.81902 24.375 2.4057 24.2038 2.10095 23.899C1.7962 23.5943 1.625 23.181 1.625 22.75V5.6875C1.625 5.25652 1.7962 4.8432 2.10095 4.53845C2.4057 4.2337 2.81902 4.0625 3.25 4.0625H4.875V2.4375Z" fill="#F5EEDE"/>
<path fill-rule="evenodd" clip-rule="evenodd" d="M13.8125 1.625H8.9375C8.72201 1.625 8.51535 1.7106 8.36298 1.86298C8.2106 2.01535 8.125 2.22201 8.125 2.4375V4.0625C8.125 4.27799 8.2106 4.48465 8.36298 4.63702C8.51535 4.7894 8.72201 4.875 8.9375 4.875H13.8125C14.028 4.875 14.2347 4.7894 14.387 4.63702C14.5394 4.48465 14.625 4.27799 14.625 4.0625V2.4375C14.625 2.22201 14.5394 2.01535 14.387 1.86298C14.2347 1.7106 14.028 1.625 13.8125 1.625ZM8.9375 0C8.29103 0 7.67105 0.256807 7.21393 0.713927C6.75681 1.17105 6.5 1.79103 6.5 2.4375V4.0625C6.5 4.70897 6.75681 5.32895 7.21393 5.78607C7.67105 6.24319 8.29103 6.5 8.9375 6.5H13.8125C14.459 6.5 15.079 6.24319 15.5361 5.78607C15.9932 5.32895 16.25 4.70897 16.25 4.0625V2.4375C16.25 1.79103 15.9932 1.17105 15.5361 0.713927C15.079 0.256807 14.459 0 13.8125 0H8.9375Z" fill="#F5EEDE"/>
</svg>
