<svg width="28" height="26" viewBox="0 0 28 26" fill="none" xmlns="http://www.w3.org/2000/svg">
<path d="M3.78561 10.4609V24.0769C3.78561 24.3217 3.88344 24.5565 4.05758 24.7296C4.23172 24.9027 4.46791 25 4.71418 25H10.2856V17.1535C10.2856 16.7863 10.4324 16.4341 10.6936 16.1744C10.9548 15.9147 11.3091 15.7688 11.6785 15.7688H16.3213C16.6907 15.7688 17.045 15.9147 17.3062 16.1744C17.5674 16.4341 17.7142 16.7863 17.7142 17.1535V25H23.2856C23.5319 25 23.7681 24.9027 23.9422 24.7296C24.1164 24.5565 24.2142 24.3217 24.2142 24.0769V10.4609M27 12.9995L14.632 1.22977C14.3418 0.925143 13.6634 0.921681 13.368 1.22977L1 12.9995M22.3571 8.55701V1.92211H19.5714V5.90305" stroke="#DBC479" stroke-width="2" stroke-linecap="round" stroke-linejoin="round"/>
</svg>
